Coordinates
version=1
nRows=19
nColumns=24
inDegrees=yes

Units are S.I. units (second, meters, Newtons, ...)
Angles are in degrees.

endheader
time	pelvis_tilt	pelvis_list	pelvis_rotation	pelvis_tx	pelvis_ty	pelvis_tz	hip_flexion_r	hip_adduction_r	hip_rotation_r	knee_angle_r	ankle_angle_r	subtalar_angle_r	mtp_angle_r	hip_flexion_l	hip_adduction_l	hip_rotation_l	knee_angle_l	ankle_angle_l	subtalar_angle_l	mtp_angle_l	lumbar_extension	lumbar_bending	lumbar_rotation
      3.56000000	     71.89579176	      0.99281855	     -2.46695373	      0.53453375	      0.96729042	     -0.30242880	     -1.52398431	    -16.27116758	     -6.99639242	    -69.18502343	    -26.81683155	      0.00000000	      0.00000000	     -0.56357572	     -5.30422017	      2.89947915	    -57.55989758	    -34.04891596	      0.00000000	      0.00000000	      0.00000000	      0.00000000	      0.00000000
      3.57000000	     71.65457438	      0.95094408	     -2.46731275	      0.53468325	      0.96713670	     -0.30230295	     -1.15785108	    -16.20715231	     -6.76625841	    -69.31456904	    -27.25773184	      0.00000000	      0.00000000	     -0.34081869	     -5.30029508	      3.60802539	    -56.85839316	    -33.83108878	      0.00000000	      0.00000000	      0.00000000	      0.00000000	      0.00000000
      3.58000000	     71.43487226	      0.91529049	     -2.45667359	      0.53479748	      0.96696378	     -0.30222731	     -0.83694712	    -16.14844753	     -6.57955306	    -69.39894624	    -27.62096061	      0.00000000	      0.00000000	     -0.12537511	     -5.30436296	      4.28136428	    -56.21116884	    -33.60608899	      0.00000000	      0.00000000	      0.00000000	      0.00000000	      0.00000000
      3.59000000	     71.24563462	      0.88795012	     -2.44504453	      0.53488154	      0.96678089	     -0.30220476	     -0.58005456	    -16.10235901	     -6.46781532	    -69.43704132	    -27.83262516	      0.00000000	      0.00000000	      0.06990968	     -5.31005208	      4.90359049	    -55.62109319	    -33.37269661	      0.00000000	      0.00000000	      0.00000000	      0.00000000	      0.00000000
      3.60000000	     71.09531509	      0.86800547	     -2.43715207	      0.53495956	      0.96664626	     -0.30216753	     -0.39769602	    -16.07495408	     -6.44742385	    -69.43128015	    -27.84841946	      0.00000000	      0.00000000	      0.23516648	     -5.31337307	      5.46150684	    -55.08944756	    -33.13009672	      0.00000000	      0.00000000	      0.00000000	      0.00000000	      0.00000000
      3.61000000	     70.98796211	      0.85496897	     -2.43415231	      0.53504549	      0.96658549	     -0.30210873	     -0.29203433	    -16.06651213	     -6.51512858	    -69.38889017	    -27.66790894	      0.00000000	      0.00000000	      0.36591502	     -5.31355082	      5.94556153	    -54.61657201	    -32.87896705	      0.00000000	      0.00000000	      0.00000000	      0.00000000	      0.00000000
      3.62000000	     70.92080970	      0.84965667	     -2.43491277	      0.53511845	      0.96656315	     -0.30209609	     -0.25743203	    -16.07033158	     -6.64844829	    -69.32127582	    -27.33634725	      0.00000000	      0.00000000	      0.46410214	     -5.31232954	      6.35003757	    -54.20212184	    -32.62230403	      0.00000000	      0.00000000	      0.00000000	      0.00000000	      0.00000000
      3.63000000	     70.88653019	      0.85107867	     -2.43418267	      0.53514205	      0.96654022	     -0.30213734	     -0.27899060	    -16.07772114	     -6.81018162	    -69.24014046	    -26.93253726	      0.00000000	      0.00000000	      0.53676349	     -5.31317328	      6.67246568	    -53.84515868	    -32.36560286	      0.00000000	      0.00000000	      0.00000000	      0.00000000	      0.00000000
      3.64000000	     70.87743808	      0.85599190	     -2.42368567	      0.53511718	      0.96652144	     -0.30215780	     -0.33246896	    -16.08273053	     -6.95894814	    -69.15330295	    -26.54576842	      0.00000000	      0.00000000	      0.59316372	     -5.32081270	      6.91258321	    -53.54407357	    -32.11633219	      0.00000000	      0.00000000	      0.00000000	      0.00000000	      0.00000000
      3.65000000	     70.88592577	      0.86279407	     -2.39835679	      0.53507607	      0.96651060	     -0.30214912	     -0.39066942	    -16.08236159	     -7.06299646	    -69.06418550	    -26.24972203	      0.00000000	      0.00000000	      0.64179714	     -5.34032724	      7.07114950	    -53.29634503	    -31.88291691	      0.00000000	      0.00000000	      0.00000000	      0.00000000	      0.00000000
      3.66000000	     70.90313112	      0.87189766	     -2.35996697	      0.53503164	      0.96648158	     -0.30217708	     -0.43280322	    -16.07669350	     -7.10912925	    -68.97374047	    -26.08302843	      0.00000000	      0.00000000	      0.68822750	     -5.37503859	      7.14889189	    -53.09829389	    -31.67350006	      0.00000000	      0.00000000	      0.00000000	      0.00000000	      0.00000000
      3.67000000	     70.92088087	      0.88210744	     -2.31535756	      0.53497639	      0.96642986	     -0.30223451	     -0.44968904	    -16.06952678	     -7.10397782	    -68.88157342	    -26.04289511	      0.00000000	      0.00000000	      0.73389042	     -5.42396829	      7.14606339	    -52.94531260	    -31.49482787	      0.00000000	      0.00000000	      0.00000000	      0.00000000	      0.00000000
      3.68000000	     70.93515099	      0.89069742	     -2.27464924	      0.53490997	      0.96639170	     -0.30223552	     -0.44416566	    -16.06507611	     -7.07052757	    -68.78640760	    -26.09271548	      0.00000000	      0.00000000	      0.77570801	     -5.48076517	      7.06306148	    -52.83275314	    -31.35151211	      0.00000000	      0.00000000	      0.00000000	      0.00000000	      0.00000000
      3.69000000	     70.94729495	      0.89803785	     -2.25007490	      0.53484025	      0.96638145	     -0.30218169	     -0.42920219	    -16.06272382	     -7.04025849	    -68.68698208	    -26.17982712	      0.00000000	      0.00000000	      0.80657674	     -5.53599714	      6.90221630	    -52.75693358	    -31.24569010	      0.00000000	      0.00000000	      0.00000000	      0.00000000	      0.00000000
      3.70000000	     70.96347117	      0.90830148	     -2.24947620	      0.53477371	      0.96636256	     -0.30219495	     -0.42341946	    -16.05838573	     -7.03933300	    -68.58233145	    -26.25618182	      0.00000000	      0.00000000	      0.81647030	     -5.58266410	      6.67011168	    -52.71567671	    -31.17700717	      0.00000000	      0.00000000	      0.00000000	      0.00000000	      0.00000000
      3.71000000	     70.99367684	      0.92327696	     -2.26680067	      0.53471364	      0.96631666	     -0.30231875	     -0.44422485	    -16.05245671	     -7.07514025	    -68.47079542	    -26.29322425	      0.00000000	      0.00000000	      0.79403671	     -5.62087319	      6.37877677	    -52.70820483	    -31.14286020	      0.00000000	      0.00000000	      0.00000000	      0.00000000	      0.00000000
      3.72000000	     71.04905223	      0.93929140	     -2.28365199	      0.53465886	      0.96628915	     -0.30244697	     -0.50277437	    -16.05142236	     -7.13637471	    -68.34976421	    -26.28509383	      0.00000000	      0.00000000	      0.72907552	     -5.65660207	      6.04418507	    -52.73449502	    -31.13884155	      0.00000000	      0.00000000	      0.00000000	      0.00000000	      0.00000000
      3.73000000	     71.13706604	      0.95158483	     -2.28391079	      0.53460474	      0.96633399	     -0.30248291	     -0.60350487	    -16.05939679	     -7.20724287	    -68.21707855	    -26.24155331	      0.00000000	      0.00000000	      0.61545262	     -5.69499324	      5.68255656	    -52.79451608	    -31.15930645	      0.00000000	      0.00000000	      0.00000000	      0.00000000	      0.00000000
      3.74000000	     71.25762540	      0.95874555	     -2.26607722	      0.53454649	      0.96644596	     -0.30244603	     -0.74600255	    -16.07129773	     -7.28087717	    -68.07233449	    -26.17766912	      0.00000000	      0.00000000	      0.45299306	     -5.73485519	      5.30707709	    -52.88795999	    -31.19804712	      0.00000000	      0.00000000	      0.00000000	      0.00000000	      0.00000000
